<?xml version="1.0" standalone="no"?>
<!DOCTYPE svg PUBLIC "-//W3C//DTD SVG 20010904//EN"
 "http://www.w3.org/TR/2001/REC-SVG-20010904/DTD/svg10.dtd">
<svg version="1.0" xmlns="http://www.w3.org/2000/svg"
 width="500.000000pt" height="500.000000pt" viewBox="0 0 500.000000 500.000000"
 preserveAspectRatio="xMidYMid meet">
<metadata>
Created by potrace 1.14, written by Peter Selinger 2001-2017
</metadata>
<g transform="translate(0.000000,500.000000) scale(0.100000,-0.100000)"
fill="#000000" stroke="none">
<path d="M2429 3862 c-63 -24 -84 -41 -110 -92 -12 -25 -23 -46 -24 -47 -1 -1
-35 -9 -76 -18 -94 -20 -243 -68 -317 -102 -132 -62 -290 -172 -379 -264 -117
-122 -158 -180 -236 -334 -54 -108 -102 -273 -121 -415 -9 -64 -9 -432 0 -455
4 -11 29 -43 55 -71 l47 -51 0 -280 c-1 -201 3 -291 12 -319 48 -144 174 -231
310 -213 31 4 91 20 135 34 67 22 203 58 266 70 182 36 233 40 494 40 243 -1
334 -5 406 -21 25 -5 114 -22 164 -30 17 -3 93 -24 170 -46 224 -66 317 -60
409 26 43 40 83 104 91 147 3 19 7 162 8 317 l2 283 37 32 c62 54 69 82 68
300 -1 231 -3 256 -26 380 -17 91 -81 247 -164 396 -75 134 -262 312 -435 414
-101 59 -329 143 -457 167 -48 9 -58 15 -66 38 -35 100 -158 154 -263 114z"/>
</g>
</svg>
